<svg width="120" height="120" viewBox="0 0 120 120" fill="none" xmlns="http://www.w3.org/2000/svg">
  <!-- Background Circle -->
  <circle cx="60" cy="60" r="60" fill="url(#avatar-gradient)"/>
  
  <!-- Person Silhouette -->
  <g transform="translate(60, 60)">
    <!-- Head -->
    <circle cx="0" cy="-15" r="18" fill="rgba(255, 255, 255, 0.9)"/>
    
    <!-- Body -->
    <path d="M-25 25 Q-25 5 -18 0 Q-10 -2 0 -2 Q10 -2 18 0 Q25 5 25 25 L25 35 Q25 40 20 40 L-20 40 Q-25 40 -25 35 Z" fill="rgba(255, 255, 255, 0.9)"/>
    
    <!-- Collar/Shirt -->
    <path d="M-18 0 Q-10 -2 0 -2 Q10 -2 18 0 L15 10 Q10 8 0 8 Q-10 8 -15 10 Z" fill="rgba(255, 255, 255, 0.7)"/>
  </g>
  
  <!-- Decorative Elements -->
  <circle cx="20" cy="20" r="3" fill="rgba(255, 255, 255, 0.3)"/>
  <circle cx="100" cy="30" r="2" fill="rgba(255, 255, 255, 0.3)"/>
  <circle cx="90" cy="90" r="4" fill="rgba(255, 255, 255, 0.2)"/>
  <circle cx="30" cy="100" r="2.5" fill="rgba(255, 255, 255, 0.3)"/>
  
  <!-- Professional Badge -->
  <g transform="translate(85, 85)">
    <circle cx="0" cy="0" r="12" fill="#2563EB"/>
    <path d="M-6 -2 L-2 2 L6 -6" stroke="white" stroke-width="2" fill="none" stroke-linecap="round" stroke-linejoin="round"/>
  </g>
  
  <!-- Gradient Definitions -->
  <defs>
    <linearGradient id="avatar-gradient" x1="0%" y1="0%" x2="100%" y2="100%">
      <stop offset="0%" style="stop-color:#3B82F6;stop-opacity:1" />
      <stop offset="50%" style="stop-color:#2563EB;stop-opacity:1" />
      <stop offset="100%" style="stop-color:#1E40AF;stop-opacity:1" />
    </linearGradient>
  </defs>
</svg>